PathFileType	4	(X/Y/Z)	6_coords_data.trc
DataRate	CameraRate	NumFrames	NumMarkers	Units	OrigDataRate	OrigDataStartFrame	OrigNumFrames
30.0	30.0	8	21	m	30.0	49	68
Frame#	Time	THUMB_TIP	THUMB_IP	THUMB_MCP	THUMB_CMC	INDEX_TIP	INDEX_DIP	INDEX_PIP	INDEX_MCP	MIDDLE_TIP	MIDDLE_DIP	MIDDLE_PIP	MIDDLE_MCP	RING_TIP	RING_DIP	RING_PIP	RING_MCP	PINKY_TIP	PINKY_DIP	PINKY_PIP	PINKY_MCP	WRIST
X1	Y1	Z1	X2	Y2	Z2	X3	Y3	Z3	X4	Y4	Z4	X5	Y5	Z5	X6	Y6	Z6	X7	Y7	Z7	X8	Y8	Z8	X9	Y9	Z9	X10	Y10	Z10	X11	Y11	Z11	X12	Y12	Z12	X13	Y13	Z13	X14	Y14	Z14	X15	Y15	Z15	X16	Y16	Z16	X17	Y17	Z17	X18	Y18	Z18	X19	Y19	Z19	X20	Y20	Z20	X21	Y21	Z21
48	1.6	0.04389630126953125	-0.17233900451660156	1.0694300537109376	0.037939098358154295	-0.14547999572753906	1.074780029296875	0.016743600845336912	-0.1236760025024414	1.087510009765625	0.005330249786376953	-0.08675669860839844	1.095	0.06433709716796875	-0.1312469940185547	0.9764249877929687	0.048110801696777346	-0.1267979965209961	0.992572998046875	0.03139069938659668	-0.12110700225830077	1.010719970703125	0.006227019786834717	-0.10881199645996094	1.04047998046875	0.07215470123291015	-0.09793679809570313	0.9608319702148438	0.052874099731445315	-0.09628109741210937	0.9766909790039062	0.029179800033569337	-0.09329399871826172	0.997802978515625	0.002678639888763427	-0.08534590148925782	1.0302099609375	0.07477020263671875	-0.0627588996887207	0.9650969848632812	0.057820301055908206	-0.06288790130615235	0.982010986328125	0.03713940048217773	-0.06329930114746093	1.0029099731445312	0.00772760009765625	-0.062372100830078124	1.0323599853515626	0.07484609985351562	-0.029141300201416014	1.0057000122070312	0.05781539916992187	-0.03254850006103516	1.0160900268554687	0.04021910095214844	-0.035950801849365235	1.0256099853515626	0.013418800354003906	-0.04210380172729492	1.0398199462890625	-0.020362600326538086	-0.054913398742675784	1.10552001953125
49	1.6333333333333333	0.05390480041503906	-0.16348500061035157	1.0621099853515625	0.04449750137329102	-0.13780000305175782	1.0696199951171874	0.021754499435424804	-0.11947200012207031	1.0847099609375	0.00775793981552124	-0.08473670196533203	1.0934300537109376	0.0656769027709961	-0.1283659973144531	0.9775239868164063	0.04833840179443359	-0.12501000213623048	0.9928369750976562	0.030583499908447265	-0.12028299713134766	1.010260009765625	0.0053153600692749025	-0.10918900299072265	1.0401400146484374	0.075706298828125	-0.09803119659423828	0.965843994140625	0.05529410171508789	-0.09646520233154297	0.9795700073242187	0.029864900588989256	-0.09373789978027344	0.99839501953125	0.002024149894714355	-0.08577130126953125	1.029699951171875	0.0798228988647461	-0.06544100189208985	0.9709509887695312	0.06138940048217773	-0.06493280029296875	0.9856300048828125	0.03850350189208984	-0.06467410278320312	1.0041400146484376	0.006958300113677978	-0.06277280044555664	1.031449951171875	0.07583589935302734	-0.03398619842529297	1.0059600219726563	0.05795449829101563	-0.03564720153808594	1.0154199829101562	0.0396963005065918	-0.03775659942626953	1.0243699951171874	0.01266409969329834	-0.042275501251220704	1.0383900146484375	-0.019750200271606445	-0.05454119873046875	1.105050048828125
50	1.6666666666666667	0.06444619750976563	-0.15312399291992188	1.059030029296875	0.05119779968261719	-0.12922500610351562	1.0671700439453125	0.026865100860595702	-0.11461699676513672	1.0837099609375	0.010527400016784668	-0.08247920227050781	1.092699951171875	0.068029296875	-0.12676499938964844	0.9804229736328125	0.04966809844970703	-0.12418699645996094	0.9944080200195312	0.03082659912109375	-0.12023600006103516	1.0109199829101563	0.004760409832000732	-0.1097300033569336	1.0403399658203125	0.07771299743652343	-0.0989655990600586	0.9696119995117187	0.05665510177612305	-0.09754850006103516	0.9816580200195313	0.03028499984741211	-0.09485150146484375	0.9992130126953125	0.001445250034332275	-0.0866957015991211	1.0294300537109375	0.082681396484375	-0.06799629974365234	0.9754530029296875	0.06332529830932618	-0.06699169921875	0.9884310302734375	0.03913230133056641	-0.06613069915771484	1.0053900146484376	0.00618375015258789	-0.06347890090942383	1.030969970703125	0.07631700134277344	-0.038293800354003905	1.0069099731445312	0.05797790145874023	-0.038565799713134764	1.0150999755859376	0.03920880126953125	-0.039560699462890626	1.0234299926757813	0.012015899658203126	-0.04277249908447266	1.0374300537109375	-0.01908289909362793	-0.05429909896850586	1.10502001953125
51	1.7	0.07187870025634766	-0.14383700561523438	1.0564300537109375	0.05616130065917969	-0.12198999786376953	1.0653199462890626	0.030690799713134764	-0.11036900329589844	1.0831099853515624	0.012571399688720702	-0.08027059936523437	1.09243994140625	0.06968840026855469	-0.12676599884033204	0.9829530029296875	0.050789600372314454	-0.12463200378417968	0.9959520263671875	0.031247800827026367	-0.12081400299072266	1.0116199951171876	0.004810110092163086	-0.11018399810791016	1.040530029296875	0.07882700347900391	-0.0998011016845703	0.972114990234375	0.057375701904296875	-0.09851650238037109	0.9830770263671875	0.030578100204467773	-0.09574729919433594	0.999719970703125	0.0011456300020217891	-0.08739579772949219	1.02947998046875	0.08400620269775391	-0.07007659912109375	0.9780460205078125	0.06437100219726563	-0.06868009948730469	0.9900709838867188	0.03936859893798828	-0.06735269927978516	1.0058900146484375	0.005913430213928222	-0.0640708999633789	1.0305699462890625	0.07638719940185547	-0.04089929962158203	1.0073800048828125	0.057833301544189454	-0.04030039978027344	1.0146799926757812	0.03875659942626953	-0.040563701629638675	1.022510009765625	0.011773900032043457	-0.043095199584960935	1.036800048828125	-0.018557600021362305	-0.0540786018371582	1.105280029296875
52	1.7333333333333334	0.07521029663085937	-0.137447998046875	1.0525400390625	0.05798130035400391	-0.1172760009765625	1.0629300537109374	0.03250189971923828	-0.10791300201416015	1.0821800537109374	0.013870400428771973	-0.07888230133056641	1.09197998046875	0.0705280990600586	-0.12590699768066407	0.9836279907226563	0.05130300140380859	-0.12416400146484376	0.9962780151367188	0.0315310001373291	-0.12068800354003906	1.0116799926757813	0.005242400169372559	-0.11020700073242187	1.0406300048828125	0.07999549865722656	-0.09863739776611329	0.9737269897460937	0.05837670135498047	-0.09771510314941406	0.9842860107421875	0.031112199783325196	-0.095502197265625	1.000030029296875	0.001262189984321594	-0.08766580200195312	1.029449951171875	0.08546829986572266	-0.06988420104980468	0.9807379760742188	0.06538569641113282	-0.06860749816894532	0.9918980102539062	0.039897998809814456	-0.06737940216064453	1.0066699829101562	0.00573507022857666	-0.06418699645996094	1.029739990234375	0.07613300323486329	-0.04192119979858398	1.0076799926757813	0.0573473014831543	-0.04084420013427734	1.01427001953125	0.038171600341796875	-0.04079470062255859	1.0216699829101563	0.011253000259399414	-0.043054401397705076	1.0360899658203124	-0.017861400604248047	-0.053691898345947266	1.10543994140625
53	1.7666666666666666	0.07690560150146485	-0.13260899353027344	1.0484200439453124	0.05932680130004883	-0.11346299743652344	1.0601199951171876	0.034490798950195314	-0.10585800170898438	1.0811500244140626	0.015181599617004394	-0.0776468963623047	1.09156005859375	0.07150630187988281	-0.12327100372314453	0.9838250122070312	0.05205459976196289	-0.12235600280761719	0.99618798828125	0.03206269836425781	-0.11973799896240235	1.0114500122070313	0.005758299827575684	-0.11004299926757813	1.0409200439453126	0.08136380004882812	-0.09594429779052735	0.9756519775390625	0.05938539886474609	-0.09596720123291015	0.9854550170898437	0.03159189987182617	-0.09462960052490234	1.0006599731445311	0.0010358099937438961	-0.08779889678955079	1.02922998046875	0.08608309936523438	-0.0686937026977539	0.9826170043945313	0.0656603012084961	-0.06779049682617187	0.9928179931640625	0.039709400177001954	-0.0668770980834961	1.0070700073242187	0.004950850009918213	-0.06415650177001953	1.0294599609375	0.07530269622802735	-0.04256819915771484	1.0074000244140624	0.05640549850463867	-0.04118379974365234	1.0136900024414062	0.037041900634765625	-0.04090840148925781	1.0209500122070312	0.010578900337219239	-0.042855098724365236	1.035530029296875	-0.017090099334716797	-0.05344910049438477	1.105550048828125
54	1.8	0.07802799987792969	-0.12777400207519532	1.0442900390625	0.060102100372314456	-0.10996299743652344	1.0572900390625	0.03602859878540039	-0.1036510009765625	1.080050048828125	0.01634749984741211	-0.07643419647216797	1.091	0.07285649871826172	-0.12013700103759765	0.9848619995117187	0.0531593017578125	-0.12011299896240234	0.9966669921875	0.03277220153808594	-0.11850700378417969	1.0115700073242186	0.0060634098052978515	-0.10981400299072265	1.040800048828125	0.08214479827880859	-0.0936167984008789	0.9773980102539063	0.06003150177001953	-0.094302001953125	0.9866699829101563	0.03192090034484863	-0.09374449920654297	1.0011900024414062	0.0004672060012817381	-0.08764309692382813	1.02931005859375	0.0859250030517578	-0.06812539672851563	0.9836690063476563	0.06546179962158204	-0.06735910034179687	0.9934299926757812	0.039248001098632815	-0.066618896484375	1.0071500244140625	0.003794300079345703	-0.06400959777832031	1.0293699951171875	0.07421669769287109	-0.04272529983520508	1.0069600219726562	0.05533390045166016	-0.04118339920043945	1.0129299926757813	0.03593040084838867	-0.040758399963378905	1.0199600219726563	0.009829469680786133	-0.04256629943847656	1.0349100341796875	-0.01637579917907715	-0.05289849853515625	1.1058699951171875
55	1.8333333333333333	0.07913770294189452	-0.12333399963378906	1.04168994140625	0.060886699676513674	-0.106677001953125	1.0556099853515626	0.03740250015258789	-0.1014739990234375	1.079199951171875	0.01729159927368164	-0.07468289947509765	1.0906199951171875	0.07371640014648438	-0.11643699645996093	0.9851790161132813	0.0539005012512207	-0.11746199798583984	0.9965869750976563	0.033212600708007814	-0.11679199981689453	1.011219970703125	0.006334619998931885	-0.10921399688720704	1.040699951171875	0.08174530029296875	-0.09117400360107422	0.9773250122070313	0.05973249816894531	-0.09256729888916015	0.9863419799804688	0.03146579933166504	-0.09266940307617187	1.0011799926757812	-0.000261833995580673	-0.08741339874267579	1.0293599853515625	0.085127197265625	-0.06680780029296875	0.9836890258789063	0.06465370178222657	-0.06627649688720703	0.9933670043945313	0.03841210174560547	-0.06585690307617187	1.0070499877929688	0.00283201003074646	-0.06355199813842774	1.0290799560546875	0.07305780029296875	-0.04217919921875	1.0064500122070312	0.054037200927734376	-0.040515701293945314	1.0120999755859375	0.034519901275634764	-0.040123600006103516	1.0191199951171874	0.008782010078430175	-0.042047100067138674	1.03456005859375	-0.01566469955444336	-0.0522593994140625	1.10597998046875
